<svg width="23" height="23" viewBox="0 0 23 23" xmlns="http://www.w3.org/2000/svg"><title>E8B9D562-4043-4C34-821C-81B5CADDC1BC</title><g fill="#ffffff"><path d="M11.807 14.956c-2.059 0-3.729-1.669-3.729-3.729 0-2.059 1.669-3.729 3.729-3.729 2.059 0 3.729 1.669 3.729 3.729 0 2.059-1.669 3.729-3.729 3.729zm0-9.473c-3.172 0-5.744 2.572-5.744 5.744 0 3.172 2.572 5.744 5.744 5.744 3.172 0 5.744-2.572 5.744-5.744 0-3.172-2.572-5.744-5.744-5.744z"/><path d="M19.121 5.256c0 .741-.601 1.342-1.342 1.342-.741 0-1.342-.601-1.342-1.342 0-.741.601-1.342 1.342-1.342.741 0 1.342.601 1.342 1.342"/><path d="M11.807.041c-3.038 0-3.419.013-4.612.067-1.191.054-2.004.243-2.715.52-.736.286-1.359.668-1.981 1.29-.622.622-1.004 1.246-1.29 1.981-.277.712-.466 1.525-.52 2.715-.054 1.193-.067 1.574-.067 4.612 0 3.038.013 3.419.067 4.612.054 1.191.243 2.004.52 2.715.286.736.668 1.359 1.29 1.981.622.622 1.246 1.004 1.981 1.29.712.276 1.525.466 2.715.52 1.193.054 1.574.067 4.612.067 3.038 0 3.419-.013 4.612-.067 1.191-.054 2.004-.243 2.715-.52.736-.286 1.359-.668 1.981-1.29.622-.622 1.004-1.246 1.29-1.981.276-.712.466-1.525.52-2.715.054-1.193.067-1.574.067-4.612 0-3.038-.013-3.419-.067-4.612-.054-1.191-.243-2.004-.52-2.715-.286-.736-.668-1.359-1.29-1.981-.622-.622-1.246-1.004-1.981-1.29-.712-.277-1.525-.466-2.715-.52-1.193-.054-1.574-.067-4.612-.067zm0 2.016c2.987 0 3.341.011 4.52.065 1.091.05 1.683.232 2.077.385.522.203.895.445 1.286.837.391.391.634.764.837 1.286.153.394.335.986.385 2.077.054 1.18.065 1.533.065 4.52 0 2.987-.011 3.341-.065 4.52-.05 1.091-.232 1.683-.385 2.077-.203.522-.445.895-.837 1.286-.391.391-.764.634-1.286.837-.394.153-.986.335-2.077.385-1.179.054-1.533.065-4.52.065-2.987 0-3.341-.011-4.52-.065-1.091-.05-1.683-.232-2.077-.385-.522-.203-.895-.445-1.286-.837-.391-.391-.634-.764-.837-1.286-.153-.394-.335-.986-.385-2.077-.054-1.18-.065-1.533-.065-4.52 0-2.987.011-3.341.065-4.52.05-1.091.232-1.683.385-2.077.203-.522.445-.895.837-1.286.391-.391.764-.634 1.286-.837.394-.153.986-.335 2.077-.385 1.18-.054 1.533-.065 4.52-.065z"/></g></svg>
