<svg xmlns="http://www.w3.org/2000/svg" width="513" height="133" data-reactid="73"><rect width="100%" height="100%" fill="none"/><g class="currentLayer"><rect width="100%" height="100%" fill="none"/><path d="M89.859 28.342c-15.387 0-26.492 11.766-26.492 27.107 0 15.339 11.105 27.106 26.492 27.106 15.389 0 26.494-11.767 26.494-27.106.001-15.341-11.105-27.107-26.494-27.107zm0 47.735c-10.336 0-15.602-9.001-15.602-20.627 0-11.628 5.266-20.63 15.602-20.63 10.338 0 15.604 9.001 15.604 20.63 0 11.626-5.266 20.627-15.604 20.627zm153.572-2.151c-1.271.779-2.825 1.275-3.714 1.275-1.431 0-2.155-.744-2.155-2.915V47.555c0-11.803-7.305-19.212-20.424-19.212-11.974 0-19.681 5.717-19.681 12.179 0 3.023 2.055 5.137 4.936 5.137 2.691 0 4.449-1.319 5.915-5.213 1.573-4.182 3.64-5.863 9.363-5.863 6.555 0 9.745 3.488 9.745 10.627v4.548c-23.547.952-32.676 7.815-32.676 18.023 0 9.034 6.865 14.703 16.731 14.703 6.164 0 12.282-2.854 16.496-7.519.91 4.723 4.35 6.849 9.227 6.849 2.663 0 5.775-1.092 8.74-3.659l-2.503-4.229zm-29.522 1.304c-4.78 0-8.033-3.105-8.033-7.881 0-6.482 6.311-10.904 21.54-11.964v12.232c-3.576 4.973-9.062 7.613-13.507 7.613zm170.828-50.185l-2.306-2.746 7.134-8.675c2.053-2.472 3.888-4.459 4.808-5.231 2.676-2.247 5.504-2.048 7.306.098 1.801 2.147 1.503 4.967-1.174 7.212-.919.771-3.194 2.234-5.986 3.825l-9.782 5.517zm4.814 50.165c-10.234 0-16.058-7.016-16.058-19.761 0-.609.025-1.198.053-1.786h35.684v-3.56c0-11.816-8.623-21.761-22.096-21.761-13.899 0-24.53 12.256-24.53 27.107 0 16.482 9.961 27.095 25.624 27.095 8.718 0 16.656-4.197 22.748-11.723l-3.915-4.06c-5.521 5.598-11.221 8.449-17.51 8.449zm-2.417-40.437c6.778 0 11.268 4.83 11.506 12.883h-24.277c1.905-8.048 6.789-12.883 12.771-12.883zm55.404 36.068l3.856 4.227c-4.527 4.912-9.661 7.477-15.068 7.477-7.818 0-12.415-3.953-12.415-12.045V35.613h-8.416v-5.305c8.869-1.075 11.874-4.175 13.354-20.232h5.206v19.697h14.563v5.84h-14.563V70.22c0 3.692 1.356 4.92 4.423 4.92 2.338 0 5.922-1.545 9.06-4.299zm12.928-56.634a6.76 6.76 0 0 1 13.519 0 6.76 6.76 0 0 1-13.519 0zm-277.503 62.02v4.896H150.48v-4.896c7.943-.574 8.599-1.373 8.599-8.957V47.314c0-7.956-3.194-11.529-9.455-11.529-4.566 0-10.266 3.373-14.878 9.165v22.32c0 7.583.655 8.383 8.599 8.957v4.896h-27.482v-4.896c7.942-.574 8.74-1.373 8.74-8.957V44.096c0-7.585-.798-8.383-8.74-8.957v-4.896l18.339-1.407v8.911c4.699-5.896 10.917-9.405 17.741-9.405 10.645 0 17.281 6.734 17.281 18.393V67.27c-.001 7.584.796 8.383 8.739 8.957zm97.412-47.888c-6.395 0-12.032 2.986-15.669 7.54v-7.042l-18.34 1.407v4.896c7.944.574 8.741 1.371 8.741 8.957v48.668c0 7.583-.797 8.383-8.741 8.957v4.896h29.261v-4.896c-9.278-.702-10.376-1.373-10.376-8.957V76.996c4.198 3.718 9.63 5.559 15.598 5.559 14.446 0 24.373-12.505 24.373-27.107 0-15.366-10.509-27.109-24.847-27.109zm-1.784 46.929c-5.056 0-9.62-2.181-13.34-6.16V42.953c3.418-4.551 8.527-7.326 13.104-7.326 9.572 0 15.975 7.134 15.975 19.821-.001 12.908-6.645 19.82-15.739 19.82zm202.305.959v4.896h-27.484v-4.896c7.944-.574 8.742-1.373 8.742-8.957V44.096c0-7.585-.798-8.383-8.742-8.957v-4.896l18.884-1.407V67.27c0 7.584.656 8.383 8.6 8.957zM333.223 28.339c-6.396 0-12.033 2.986-15.668 7.539v-7.042l-18.342 1.407v4.896c7.943.574 8.74 1.371 8.74 8.957v48.668c0 7.583-.797 8.383-8.74 8.957v4.896h29.261v-4.896c-9.28-.702-10.376-1.373-10.376-8.957V76.996c4.2 3.718 9.63 5.559 15.598 5.559 14.448 0 24.372-12.505 24.372-27.107-.001-15.366-10.509-27.109-24.845-27.109zm-1.785 46.929c-5.054 0-9.619-2.181-13.34-6.158V42.952c3.419-4.551 8.528-7.325 13.104-7.325 9.572 0 15.976 7.134 15.976 19.821-.001 12.908-6.647 19.82-15.74 19.82zM33.985 28.339c-6.014 0-11.405 2.533-15.101 6.801V0L0 1.169v4.896c7.943.574 8.74 1.374 8.74 8.957V81.58h3.377l4.581-6.12c4.409 4.737 10.555 7.095 17.524 7.095 14.555 0 24.608-12.515 24.608-27.107.001-15.366-10.508-27.109-24.845-27.109zm-1.783 46.929c-4.702 0-9.335-1.919-13.317-6.083V42.88c3.493-4.69 8.592-7.254 13.08-7.254 9.573 0 15.976 7.134 15.976 19.821-.001 12.97-6.826 19.821-15.739 19.821zm479.798-.2c-4.528 4.912-9.662 7.477-15.068 7.477-7.817 0-12.414-3.953-12.414-12.045V35.613h-8.416v-5.305c8.869-1.075 11.873-4.175 13.354-20.232h5.206v19.697h15.748v5.84h-15.748V70.22c0 3.692 1.356 4.92 4.424 4.92 2.338 0 5.921-1.545 9.06-4.299L512 75.068z" stroke="#fff" fill="#fff" data-reactid="75"/></g></svg>