<svg width="14" height="18" viewBox="0 0 14 18" xmlns="http://www.w3.org/2000/svg"><title>FAFEDB3C-4031-44C8-8195-5C4774884058</title><desc>Created with sketchtool.</desc><path d="M5.815 11.754c-.423 1.85-.837 3.632-1.739 5.039-.276.431-.554.973-1.027 1.206-.698-3.592.761-6.615 1.337-9.634-.735-1.5-.278-4.039 1.296-4.327 2.28-.417 1.679 2.334 1.293 3.612-.213.701-.595 1.373-.537 2.142.127 1.622 2.167 1.727 3.212.891 1.498-1.194 1.932-3.501 1.785-5.396-.222-2.886-3.49-4.321-6.377-3.168-1.489.595-2.839 1.961-3.035 3.969-.102 1.058.12 1.903.537 2.499.062.091.278.25.31.493.065.488-.225 1.015-.491 1.379-1.478-.425-2.241-1.751-2.363-3.432-.28-3.824 2.86-6.732 6.554-7.004 3.944-.289 7.07 1.988 7.361 5.308.216 2.466-.661 4.95-2.051 6.287-1.046 1.004-3.268 1.988-5.086 1.027-.402-.213-.581-.474-.981-.893" fill="#fff"/></svg>