<svg width="24" height="20" viewBox="0 0 24 20" xmlns="http://www.w3.org/2000/svg"><title>8AB7BF16-EC0B-474C-8663-A39A68D4B933</title><desc>Created with sketchtool.</desc><path fill="#ffffff" d="M24 2.312c-.883.392-1.832.656-2.828.776 1.016-.61 1.797-1.576 2.164-2.729-.952.565-2.005.976-3.124 1.197-.901-.96-2.18-1.556-3.596-1.556-2.717 0-4.923 2.208-4.923 4.931 0 .388.044.765.128 1.124-4.094-.204-7.72-2.17-10.15-5.152-.425.729-.666 1.576-.666 2.479 0 1.714.867 3.224 2.191 4.106-.808-.024-1.567-.246-2.23-.616v.062c0 2.39 1.697 4.381 3.95 4.835-.416.113-.85.175-1.297.175-.319 0-.626-.031-.927-.089.626 1.958 2.445 3.385 4.6 3.425-1.686 1.324-3.808 2.113-6.116 2.113-.398 0-.79-.024-1.175-.069 2.177 1.399 4.769 2.217 7.548 2.217 9.057 0 14.009-7.52 14.009-14.038l-.013-.636c.96-.696 1.797-1.565 2.456-2.554" /></svg>
