<svg xmlns="http://www.w3.org/2000/svg" xmlns:xlink="http://www.w3.org/1999/xlink" width="20" height="14" viewBox="0 0 20 14">
    <defs>
        <path id="a" d="M0 0h20v14H0z"/>
    </defs>
    <g fill="none" fill-rule="evenodd">
        <mask id="b" fill="#fff">
            <use xlink:href="#a"/>
        </mask>
        <path fill="#FFFFFE" d="M7.955 9.955v-5.91L13.182 7 7.955 9.955zm11.627-7.769A2.505 2.505 0 0 0 17.814.418C16.254 0 10 0 10 0S3.746 0 2.186.418c-.86.23-1.538.908-1.768 1.768C0 3.746 0 7 0 7s0 3.254.418 4.814c.23.86.908 1.538 1.768 1.768C3.746 14 10 14 10 14s6.254 0 7.814-.418a2.505 2.505 0 0 0 1.768-1.768C20 10.254 20 7 20 7s0-3.254-.418-4.814z" mask="url(#b)"/>
    </g>
</svg>
